<svg xmlns="http://www.w3.org/2000/svg" viewBox="0 0 23.01 24"><defs><style>.cls-1{fill:#323232;}</style></defs><title>Artboard 11</title><g id="Home"><path class="cls-1" d="M12,5.44c2.33,0,2.6,0,3.52.05,2.36.11,3.46,1.23,3.57,3.57,0,.92.05,1.19.05,3.52s0,2.6-.05,3.52c-.11,2.34-1.21,3.46-3.57,3.57-.92,0-1.19.05-3.52.05s-2.6,0-3.52-.05C6.16,19.56,5.07,18.44,5,16.1c0-.92-.05-1.19-.05-3.52s0-2.6.05-3.52C5.07,6.72,6.17,5.6,8.53,5.49,9.45,5.45,9.72,5.44,12,5.44Zm0-1.57c-2.37,0-2.66,0-3.59.05C5.3,4.07,3.54,5.83,3.39,9c0,.93-.05,1.23-.05,3.59s0,2.66.05,3.59c.15,3.16,1.9,4.92,5.07,5.07.93,0,1.23.05,3.59.05s2.66,0,3.59-.05c3.16-.15,4.92-1.9,5.06-5.07,0-.93.05-1.23.05-3.59s0-2.66-.05-3.59c-.14-3.16-1.9-4.92-5.06-5.07C14.71,3.89,14.41,3.88,12,3.88Zm0,4.24a4.47,4.47,0,1,0,4.47,4.47A4.47,4.47,0,0,0,12,8.11Zm0,7.37a2.9,2.9,0,1,1,2.9-2.9A2.9,2.9,0,0,1,12,15.49Zm4.65-8.6a1,1,0,1,0,1,1A1,1,0,0,0,16.7,6.89Z"/></g></svg>