<svg xmlns="http://www.w3.org/2000/svg" viewBox="0 0 30.72 24"><defs><style>.cls-1{fill:#323232;}</style></defs><title>Artboard 10</title><g id="Home"><path class="cls-1" d="M21.2,15.15a2.26,2.26,0,0,0-.43-1.35,2.43,2.43,0,0,0-1.1-.87,6.9,6.9,0,0,1-.29,1.16.85.85,0,0,1-.35.48,1,1,0,0,1-.56.18,1.25,1.25,0,0,1-.3,0,.92.92,0,0,1-.57-.49.94.94,0,0,1-.05-.74,5.83,5.83,0,0,0,.29-1.81,5.6,5.6,0,0,0-.77-2.87A5.71,5.71,0,0,0,15,6.72a5.75,5.75,0,0,0-6,.15A5.56,5.56,0,0,0,6.86,9.32a5.22,5.22,0,0,1,2.37,1.34,1,1,0,0,1,.28.69.95.95,0,0,1-1,1A1,1,0,0,1,7.86,12a3.1,3.1,0,0,0-2.27-.95A3.13,3.13,0,0,0,3.3,12a3.22,3.22,0,0,0,0,4.56,3.13,3.13,0,0,0,2.29.94H18.8a2.39,2.39,0,0,0,2.4-2.39Zm1.93,0a4.32,4.32,0,0,1-4.33,4.32H5.59A5,5,0,0,1,1.93,18,5,5,0,0,1,.42,14.31a5,5,0,0,1,1.26-3.37A5,5,0,0,1,4.83,9.22,7.46,7.46,0,0,1,7.62,5.46,7.5,7.5,0,0,1,12.09,4a7.4,7.4,0,0,1,5.16,2,7.46,7.46,0,0,1,2.48,4.92,4.21,4.21,0,0,1,2.43,1.5A4.16,4.16,0,0,1,23.13,15.15Zm3.16,0a7.06,7.06,0,0,1-1.23,4,1,1,0,0,1-1.35.25.9.9,0,0,1-.4-.61.92.92,0,0,1,.15-.73,5.28,5.28,0,0,0,0-5.89.91.91,0,0,1-.15-.72.94.94,0,0,1,.4-.62.9.9,0,0,1,.73-.15,1,1,0,0,1,.63.41A7,7,0,0,1,26.29,15.15Zm3.23,0a9.8,9.8,0,0,1-1.69,5.6,1,1,0,0,1-1.34.27,1,1,0,0,1-.41-.62.89.89,0,0,1,.15-.72,8.06,8.06,0,0,0,1.36-4.52,8,8,0,0,0-1.36-4.51.9.9,0,0,1-.15-.73.93.93,0,0,1,.41-.61.91.91,0,0,1,.72-.15.93.93,0,0,1,.62.42A9.74,9.74,0,0,1,29.52,15.15Z"/></g></svg>